<?xml version="1.0" encoding="UTF-8"?>
<svg id="_x31_" xmlns="http://www.w3.org/2000/svg" xmlns:xlink="http://www.w3.org/1999/xlink" version="1.1" viewBox="0 0 239.72 200.13">
  <!-- Generator: Adobe Illustrator 29.1.0, SVG Export Plug-In . SVG Version: 2.1.0 Build 142)  -->
  <defs>
    <style>
      .st0 {
        fill: none;
      }

      .st1 {
        fill: #fff;
      }

      .st2 {
        fill: #1ebbff;
      }

      .st3 {
        fill: #bbedff;
      }

      .st4 {
        clip-path: url(#clippath);
      }
    </style>
    <clipPath id="clippath">
      <rect class="st0" width="239.72" height="200.13"/>
    </clipPath>
  </defs>
  <g class="st4">
    <rect class="st3" width="239.72" height="200.13"/>
    <g>
      <path class="st2" d="M168.24,73.91c-2.36-4.08-7.58-5.48-11.66-3.12l-7.39,4.27,8.53,14.78,7.39-4.27c4.08-2.36,5.48-7.58,3.12-11.66Z"/>
      <path d="M157.73,90.59c-.26,0-.51-.13-.65-.38l-8.54-14.78c-.1-.17-.13-.38-.08-.57.05-.19.18-.36.35-.46l7.39-4.27c2.15-1.24,4.65-1.57,7.05-.93,2.4.64,4.4,2.18,5.64,4.33h0c1.24,2.15,1.57,4.65.93,7.05-.64,2.4-2.18,4.4-4.33,5.64l-7.39,4.27c-.12.07-.25.1-.37.1ZM150.22,75.33l7.79,13.48,6.74-3.89c1.8-1.04,3.09-2.72,3.63-4.73.54-2.01.26-4.11-.78-5.91h0c-1.04-1.8-2.72-3.09-4.73-3.63-2.01-.54-4.11-.26-5.91.78l-6.74,3.89Z"/>
    </g>
    <rect class="st1" x="81.99" y="22.52" width="75.74" height="143.08" rx="12.14" ry="12.14"/>
    <path d="M145.59,166.35h-51.45c-7.11,0-12.89-5.78-12.89-12.89V34.66c0-7.11,5.78-12.89,12.89-12.89h51.45c7.11,0,12.89,5.78,12.89,12.89v118.8c0,7.11-5.78,12.89-12.89,12.89ZM94.13,23.27c-6.28,0-11.39,5.11-11.39,11.39v118.8c0,6.28,5.11,11.39,11.39,11.39h51.45c6.28,0,11.39-5.11,11.39-11.39V34.66c0-6.28-5.11-11.39-11.39-11.39h-51.45Z"/>
    <g>
      <path class="st2" d="M163,104.3h-7.57c-4.4,0-7.97,3.57-7.97,7.97s3.57,7.97,7.97,7.97h7.57c4.4,0,7.97-3.57,7.97-7.97s-3.57-7.97-7.97-7.97Z"/>
      <path d="M163,120.99h-7.57c-4.81,0-8.72-3.91-8.72-8.72s3.91-8.72,8.72-8.72h7.57c4.81,0,8.72,3.91,8.72,8.72s-3.91,8.72-8.72,8.72ZM155.43,105.05c-3.98,0-7.22,3.24-7.22,7.22s3.24,7.22,7.22,7.22h7.57c3.98,0,7.22-3.24,7.22-7.22s-3.24-7.22-7.22-7.22h-7.57Z"/>
    </g>
    <g>
      <path class="st2" d="M163,120.24h-7.57c-4.4,0-7.97,3.57-7.97,7.97s3.57,7.97,7.97,7.97h7.57c4.4,0,7.97-3.57,7.97-7.97s-3.57-7.97-7.97-7.97Z"/>
      <path d="M163,136.92h-7.57c-4.81,0-8.72-3.91-8.72-8.72s3.91-8.72,8.72-8.72h7.57c4.81,0,8.72,3.91,8.72,8.72s-3.91,8.72-8.72,8.72ZM155.43,120.99c-3.98,0-7.22,3.24-7.22,7.22s3.24,7.22,7.22,7.22h7.57c3.98,0,7.22-3.24,7.22-7.22s-3.24-7.22-7.22-7.22h-7.57Z"/>
    </g>
    <g>
      <path class="st2" d="M163,136.18h-7.57c-4.4,0-7.97,3.57-7.97,7.97s3.57,7.97,7.97,7.97h7.57c4.4,0,7.97-3.57,7.97-7.97s-3.57-7.97-7.97-7.97Z"/>
      <path d="M163,152.86h-7.57c-4.81,0-8.72-3.91-8.72-8.72s3.91-8.72,8.72-8.72h7.57c4.81,0,8.72,3.91,8.72,8.72s-3.91,8.72-8.72,8.72ZM155.43,136.93c-3.98,0-7.22,3.24-7.22,7.22s3.24,7.22,7.22,7.22h7.57c3.98,0,7.22-3.24,7.22-7.22s-3.24-7.22-7.22-7.22h-7.57Z"/>
    </g>
    <path class="st2" d="M87.11,137.91v-14.87s15.71-24.7-5.12-34.22l-17.85,34.22v107.08h28.3l41.19-23.84,9.71-40.68h-45.24s2.46-21.47-10.99-27.68Z"/>
    <g>
      <path d="M67.43,60.83h-26.45c-.41,0-.75-.34-.75-.75s.34-.75.75-.75h26.45c.41,0,.75.34.75.75s-.34.75-.75.75Z"/>
      <path d="M66.13,48.56c-.08,0-.16-.01-.24-.04l-12.21-4.07c-.39-.13-.6-.56-.47-.95.13-.39.56-.61.95-.47l12.21,4.07c.39.13.6.56.47.95-.1.31-.4.51-.71.51Z"/>
      <path d="M53.91,77.18c-.31,0-.61-.2-.71-.51-.13-.39.08-.82.47-.95l12.21-4.07c.39-.13.82.08.95.47.13.39-.08.82-.47.95l-12.21,4.07c-.08.03-.16.04-.24.04Z"/>
    </g>
    <g>
      <path d="M198.75,60.83h-26.45c-.41,0-.75-.34-.75-.75s.34-.75.75-.75h26.45c.41,0,.75.34.75.75s-.34.75-.75.75Z"/>
      <path d="M173.6,48.56c-.31,0-.61-.2-.71-.51-.13-.39.08-.82.47-.95l12.21-4.07c.39-.13.82.08.95.47.13.39-.08.82-.47.95l-12.21,4.07c-.08.03-.16.04-.24.04Z"/>
      <path d="M185.81,77.18c-.08,0-.16-.01-.24-.04l-12.21-4.07c-.39-.13-.6-.56-.47-.95.13-.39.56-.61.95-.47l12.21,4.07c.39.13.6.56.47.95-.1.31-.4.51-.71.51Z"/>
    </g>
    <g>
      <polygon points="199.19 87.74 198.85 97.49 208.02 100.83 198.64 103.51 198.3 113.26 192.85 105.18 183.47 107.86 189.48 100.18 184.02 92.09 193.19 95.43 199.19 87.74"/>
      <path d="M198.3,114.01c-.25,0-.48-.12-.62-.33l-5.15-7.63-8.85,2.54c-.31.09-.65-.03-.83-.3-.18-.27-.17-.62.03-.88l5.67-7.26-5.15-7.63c-.18-.27-.17-.62.03-.88.2-.26.54-.35.85-.24l8.65,3.15,5.67-7.26c.2-.26.54-.35.85-.24.31.11.5.41.49.73l-.32,9.2,8.65,3.15c.31.11.5.41.49.73s-.23.6-.54.69l-8.85,2.54-.32,9.2c-.01.32-.23.6-.54.69-.07.02-.14.03-.21.03ZM192.85,104.43c.25,0,.48.12.62.33l4.16,6.17.26-7.44c.01-.32.23-.6.54-.69l7.16-2.05-7-2.55c-.31-.11-.5-.41-.49-.73l.26-7.44-4.58,5.87c-.2.26-.54.36-.85.24l-7-2.55,4.16,6.17c.18.27.17.62-.03.88l-4.58,5.87,7.16-2.05c.07-.02.14-.03.21-.03Z"/>
    </g>
    <g>
      <polygon points="222.54 83.92 222.38 88.6 226.78 90.2 222.27 91.49 222.11 96.17 219.49 92.29 214.99 93.58 217.87 89.89 215.25 86 219.66 87.61 222.54 83.92"/>
      <path d="M222.11,96.92c-.25,0-.48-.12-.62-.33l-2.31-3.43-3.98,1.14c-.31.09-.65-.03-.83-.3-.18-.27-.17-.62.03-.88l2.55-3.26-2.31-3.43c-.18-.27-.17-.62.03-.88.2-.26.55-.35.85-.24l3.89,1.42,2.55-3.26c.2-.26.54-.35.85-.24.31.11.5.41.49.73l-.14,4.14,3.89,1.42c.31.11.5.41.49.73s-.23.6-.54.69l-3.98,1.14-.14,4.14c-.01.32-.23.6-.54.69-.07.02-.14.03-.21.03ZM219.49,91.54c.25,0,.48.12.62.33l1.33,1.97.08-2.37c.01-.32.23-.6.54-.69l2.28-.66-2.23-.81c-.31-.11-.5-.41-.49-.73l.08-2.37-1.46,1.87c-.2.26-.54.35-.85.24l-2.23-.81,1.33,1.97c.18.27.17.62-.03.88l-1.46,1.87,2.28-.65c.07-.02.14-.03.21-.03Z"/>
    </g>
    <g>
      <polygon points="179.15 158.11 178.94 164.3 184.75 166.41 178.8 168.12 178.59 174.3 175.13 169.17 169.18 170.88 172.99 166 169.53 160.87 175.34 162.99 179.15 158.11"/>
      <path d="M178.59,175.05c-.24,0-.48-.12-.62-.33l-3.15-4.68-5.42,1.56c-.31.09-.65-.03-.83-.3-.18-.27-.17-.62.03-.88l3.47-4.45-3.15-4.68c-.18-.27-.17-.62.03-.88.2-.26.55-.35.85-.24l5.3,1.93,3.47-4.45c.2-.26.54-.35.85-.24.31.11.5.41.49.73l-.2,5.64,5.3,1.93c.31.11.5.41.49.73s-.23.6-.54.69l-5.42,1.55-.2,5.64c-.01.32-.23.6-.54.69-.07.02-.14.03-.21.03ZM175.13,168.42c.25,0,.48.12.62.33l2.17,3.21.14-3.88c.01-.32.23-.6.54-.69l3.73-1.07-3.64-1.33c-.31-.11-.5-.41-.49-.73l.14-3.88-2.39,3.06c-.2.26-.54.35-.85.24l-3.64-1.33,2.17,3.21c.18.27.17.62-.03.88l-2.39,3.06,3.73-1.07c.07-.02.14-.03.21-.03Z"/>
    </g>
    <circle class="st2" cx="192.33" cy="152.53" r="2.83"/>
    <circle class="st2" cx="210.64" cy="113.26" r="2.83"/>
    <g>
      <polygon points="40.53 87.74 40.87 97.49 31.7 100.83 41.08 103.51 41.42 113.26 46.87 105.18 56.25 107.86 50.24 100.18 55.7 92.09 46.53 95.43 40.53 87.74"/>
      <path d="M41.42,114.01c-.07,0-.14,0-.21-.03-.31-.09-.53-.37-.54-.69l-.32-9.2-8.85-2.54c-.31-.09-.53-.37-.54-.69s.19-.62.49-.73l8.65-3.15-.32-9.2c-.01-.32.19-.62.49-.73.3-.11.65-.01.85.24l5.67,7.26,8.65-3.15c.3-.11.65-.01.85.24.2.26.21.61.03.88l-5.15,7.63,5.67,7.26c.2.26.21.61.03.88-.18.27-.52.39-.83.3l-8.85-2.54-5.15,7.63c-.14.21-.38.33-.62.33ZM34.13,100.74l7.16,2.05c.31.09.53.37.54.69l.26,7.44,4.16-6.17c.18-.27.52-.39.83-.3l7.16,2.05-4.58-5.87c-.2-.26-.21-.61-.03-.88l4.16-6.17-7,2.55c-.3.11-.65.01-.85-.24l-4.58-5.87.26,7.44c.01.32-.19.62-.49.73l-7,2.55Z"/>
    </g>
    <g>
      <polygon points="17.18 83.92 17.35 88.6 12.94 90.2 17.45 91.49 17.61 96.17 20.23 92.29 24.73 93.58 21.85 89.89 24.47 86 20.07 87.61 17.18 83.92"/>
      <path d="M17.61,96.92c-.07,0-.14,0-.21-.03-.31-.09-.53-.37-.54-.69l-.14-4.14-3.98-1.14c-.31-.09-.53-.37-.54-.69s.19-.62.49-.73l3.89-1.42-.14-4.14c-.01-.32.19-.62.49-.73.3-.11.65-.01.85.24l2.55,3.26,3.89-1.42c.3-.11.65-.01.85.24.2.26.21.61.03.88l-2.31,3.43,2.55,3.26c.2.26.21.61.03.88-.18.27-.52.39-.83.3l-3.98-1.14-2.31,3.43c-.14.21-.38.33-.62.33ZM15.37,90.11l2.28.66c.31.09.53.37.54.69l.08,2.37,1.33-1.97c.18-.27.52-.39.83-.3l2.28.65-1.46-1.87c-.2-.26-.21-.61-.03-.88l1.33-1.97-2.23.81c-.3.11-.65.01-.85-.24l-1.46-1.87.08,2.37c.01.32-.19.62-.49.73l-2.23.81Z"/>
    </g>
    <g>
      <polygon points="40.74 158.11 40.96 164.3 35.15 166.41 41.09 168.12 41.31 174.3 44.77 169.17 50.72 170.88 46.91 166 50.37 160.87 44.55 162.99 40.74 158.11"/>
      <path d="M41.31,175.05c-.07,0-.14,0-.21-.03-.31-.09-.53-.37-.54-.69l-.2-5.64-5.42-1.55c-.31-.09-.53-.37-.54-.69s.19-.62.49-.73l5.3-1.93-.2-5.64c-.01-.32.19-.62.49-.73.3-.11.65-.01.85.24l3.47,4.45,5.3-1.93c.3-.11.65-.01.85.24.2.26.21.61.03.88l-3.15,4.68,3.47,4.45c.2.26.21.61.03.88-.18.27-.52.39-.83.3l-5.42-1.56-3.15,4.68c-.14.21-.38.33-.62.33ZM37.57,166.33l3.73,1.07c.31.09.53.37.54.69l.14,3.88,2.17-3.21c.18-.27.52-.39.83-.3l3.73,1.07-2.39-3.06c-.2-.26-.21-.61-.03-.88l2.17-3.22-3.64,1.33c-.3.11-.65.01-.85-.24l-2.39-3.06.14,3.88c.01.32-.19.62-.49.73l-3.64,1.33Z"/>
    </g>
    <circle class="st2" cx="27.56" cy="152.53" r="2.83"/>
    <circle class="st2" cx="29.08" cy="113.26" r="2.83"/>
    <g>
      <path d="M142.18,170.46h-39.22c-2.69,0-4.86-2.18-4.86-4.86h45.24l-1.16,4.86Z"/>
      <path d="M142.18,171.21h-39.22c-3.09,0-5.61-2.52-5.61-5.61,0-.41.34-.75.75-.75h45.25c.23,0,.45.1.59.29.14.18.19.42.14.64l-1.16,4.86c-.08.34-.38.58-.73.58ZM98.92,166.35c.35,1.91,2.03,3.36,4.04,3.36h38.63l.8-3.36h-43.48Z"/>
    </g>
    <path d="M92.44,230.87h-28.3c-.41,0-.75-.34-.75-.75v-107.08c0-.12.03-.24.08-.35l17.85-34.22c.18-.35.61-.5.98-.33,5.49,2.51,9.01,6.28,10.47,11.22,3.06,10.33-3.88,22.21-4.92,23.9v14.18c5.49,2.73,9.12,8.43,10.53,16.51.84,4.83.66,9.13.53,10.89h44.43c.23,0,.45.1.59.29.14.18.19.42.14.64l-9.71,40.68c-.05.2-.18.37-.35.47l-41.19,23.84c-.11.07-.24.1-.38.1ZM64.89,229.37h27.35l40.74-23.58,9.41-39.45h-44.29c-.21,0-.42-.09-.56-.25-.14-.16-.21-.37-.19-.58.02-.21,2.24-21.01-10.56-26.92-.27-.12-.44-.39-.44-.68v-14.87c0-.14.04-.28.12-.4.08-.12,7.9-12.61,4.86-22.86-1.27-4.3-4.31-7.65-9.01-9.97l-17.44,33.42v106.14Z"/>
    <g>
      <g>
        <rect class="st3" x="101.77" y="84.21" width="36.17" height="32.25" rx="3.92" ry="3.92"/>
        <path d="M134.02,117.21h-28.33c-2.58,0-4.67-2.1-4.67-4.67v-24.4c0-2.58,2.1-4.67,4.67-4.67h28.33c2.58,0,4.67,2.1,4.67,4.67v24.4c0,2.58-2.1,4.67-4.67,4.67ZM105.7,84.96c-1.75,0-3.17,1.42-3.17,3.17v24.4c0,1.75,1.42,3.17,3.17,3.17h28.33c1.75,0,3.17-1.42,3.17-3.17v-24.4c0-1.75-1.42-3.17-3.17-3.17h-28.33Z"/>
      </g>
      <path d="M121.9,100.94c1.07-.68,1.78-1.86,1.78-3.22,0-2.11-1.71-3.81-3.81-3.81s-3.81,1.71-3.81,3.81c0,1.36.71,2.54,1.78,3.22l-2.31,5.82h8.7l-2.31-5.82Z"/>
      <g>
        <path d="M129.46,77.03h2.94c0-6.91-5.62-12.54-12.54-12.54s-12.54,5.62-12.54,12.54v7.18h2.94v-7.18c0-5.29,4.31-9.6,9.6-9.6s9.6,4.31,9.6,9.6Z"/>
        <path d="M110.26,84.96h-2.94c-.41,0-.75-.34-.75-.75v-7.18c0-7.33,5.96-13.29,13.29-13.29s13.29,5.96,13.29,13.29c0,.41-.34.75-.75.75h-2.94c-.41,0-.75-.34-.75-.75,0-4.88-3.97-8.85-8.85-8.85s-8.85,3.97-8.85,8.85v7.18c0,.41-.34.75-.75.75ZM108.07,83.46h1.44v-6.43c0-5.71,4.64-10.35,10.35-10.35s9.94,4.24,10.32,9.6h1.45c-.39-6.15-5.52-11.04-11.77-11.04s-11.79,5.29-11.79,11.79v6.43ZM130.21,77.03h0,0Z"/>
      </g>
    </g>
    <g>
      <line x1="111.49" y1="33.17" x2="128.23" y2="33.17"/>
      <path d="M128.23,36.17h-16.73c-1.66,0-3-1.34-3-3s1.34-3,3-3h16.73c1.66,0,3,1.34,3,3s-1.34,3-3,3Z"/>
    </g>
  </g>
</svg>